<svg id="Capa_1" data-name="Capa 1" xmlns="http://www.w3.org/2000/svg" viewBox="0 0 1713.39 512"><defs><style>.cls-1{fill:#fff;}</style></defs><title>ninja-pages</title><path class="cls-1" d="M478.23,221.06C471.46,95,375.91,0,256,0S40.54,95,33.76,221.06C30.8,276,9.84,442.35,9.62,444a22.65,22.65,0,0,0,8.46,20.64C24.22,469.5,83.12,512,257,512c171,0,230.58-42.39,236.82-47.23a22.56,22.56,0,0,0,8.6-20.76C502.17,442.34,481.21,276,478.23,221.06Zm-105-34.9c26.62,3.46,44.82,30.19,40.82,58s-26.58,46.74-50.58,43.64a831.23,831.23,0,0,0-214.86,0c-24,3.08-46.59-15.76-50.58-43.64s14.22-54.57,40.82-58A905.24,905.24,0,0,1,373.19,186.16Z" transform="translate(-9.44)"/><circle class="cls-1" cx="173.04" cy="238.41" r="24.61"/><circle class="cls-1" cx="320.05" cy="238.41" r="24.61"/><path class="cls-1" d="M612.72,71.2l74.9,74q2.56-9,5.9-21.2,2.82-10.4,6.93-25.3t9.23-34.1h48.74l-39,142.2H681.21q-30-29.8-49.12-48.6t-30.14-29.6q-12.83-12.6-19.24-19-2.06,7.4-5.64,20.6-3.08,11.4-8.21,29.9T556,207H507.3L538.59,92.6a32.62,32.62,0,0,1,6.41-12,47.84,47.84,0,0,1,11.16-9.8,60.59,60.59,0,0,1,14.36-6.7,52.38,52.38,0,0,1,16-2.5,41.73,41.73,0,0,1,15,2.6A31.14,31.14,0,0,1,612.72,71.2Z" transform="translate(-9.44)"/><path class="cls-1" d="M733.28,207l39-142.4h48.48L782,207H733.28Z" transform="translate(-9.44)"/><path class="cls-1" d="M900,71.2l74.9,74q2.56-9,5.9-21.2,2.82-10.4,6.93-25.3T997,64.6h48.74l-39,142.2H968.49q-30-29.8-49.12-48.6t-30.14-29.6Q876.4,116,870,109.6q-2.06,7.4-5.64,20.6-3.08,11.4-8.21,29.9T843.31,207H794.58L825.87,92.6a32.62,32.62,0,0,1,6.41-12,47.84,47.84,0,0,1,11.16-9.8,60.59,60.59,0,0,1,14.36-6.7,52.38,52.38,0,0,1,16-2.5,41.73,41.73,0,0,1,15,2.6A31.14,31.14,0,0,1,900,71.2Z" transform="translate(-9.44)"/><path class="cls-1" d="M1271.16,64.6l-30.52,111.6a32.64,32.64,0,0,1-6.41,12,47.76,47.76,0,0,1-11.16,9.8,57.86,57.86,0,0,1-14.36,6.6,54.38,54.38,0,0,1-16,2.4H1020.56l19.24-70.8h48.74q-2.83,9.8-4.49,16.2t-2.69,10.2q-1,4.4-1.8,6.6H1194q1-3.6,3.08-11.4t4.75-17.4q2.69-9.6,5.39-19.7t5-18.1H1049l10.52-38h211.62Z" transform="translate(-9.44)"/><path class="cls-1" d="M1285.27,64.6h211.62L1466.62,176a32.63,32.63,0,0,1-6.41,12,47.74,47.74,0,0,1-11.16,9.8,59.93,59.93,0,0,1-14.49,6.7,53.53,53.53,0,0,1-16.16,2.5H1246.54l14.88-54.6q11-7,21-13.5t18-11.7q9.23-6,17.19-11.2h68.74q-12.57,8.2-25.39,16.5t-23.86,15.4q-11,7.1-19.37,12.4t-11.93,7.7a0.71,0.71,0,0,0-.26.6c0,0.27-.09.4-0.26,0.4h114.66q1-3.4,3.08-11.2t4.62-17.4l5.26-19.7q2.69-10.1,5-18.3H1275Z" transform="translate(-9.44)"/><path class="cls-1" d="M673,262.6H838.6a38.08,38.08,0,0,1,14.17,2.5,29.19,29.19,0,0,1,10.35,6.7,21.93,21.93,0,0,1,5.54,9.8,23,23,0,0,1-.25,12l-10.1,38.8a33.07,33.07,0,0,1-6.16,12,46.48,46.48,0,0,1-10.72,9.8,54.55,54.55,0,0,1-13.8,6.6,50.32,50.32,0,0,1-15.4,2.4h-119q-0.5,2.8-2,8.2-1.23,4.6-3.33,12.7T682.4,405H635.59Zm146.84,38H709.75q-0.74,2.8-1.36,5.3T707,311.2q-0.74,2.8-1.6,6.2t-2.09,8H813.47q1.48-5.6,3.33-12.4T819.88,300.6Z" transform="translate(-9.44)"/><path class="cls-1" d="M889.85,262.6h203.26L1064,374a33.07,33.07,0,0,1-6.16,12,46.48,46.48,0,0,1-10.72,9.8,56.58,56.58,0,0,1-13.92,6.7,49.54,49.54,0,0,1-15.52,2.5H852.65l14.29-54.6q10.59-7,20.2-13.5t17.25-11.7q8.87-6,16.51-11.2h66q-12.07,8.2-24.39,16.5t-22.91,15.4Q929,353,921,358.3T909.56,366a0.72,0.72,0,0,0-.25.6c0,0.27-.08.4-0.25,0.4H1019.2q1-3.4,3-11.2t4.44-17.4l5.05-19.7q2.59-10.1,4.8-18.3H880Z" transform="translate(-9.44)"/><path class="cls-1" d="M1106.66,262.6h203.26l-9.85,38H1143.37q-2,7.8-4.43,17.2T1134,336.4q-2.47,9.2-4.56,17.4t-3.57,13.4H1236q0.74-2.2,1.72-6.6,1-3.8,2.59-10.1t4.31-16.1h46.57L1272.71,405H1107.39a39.44,39.44,0,0,1-14.17-2.4,28.09,28.09,0,0,1-10.35-6.6,23,23,0,0,1-5.67-9.8,22.14,22.14,0,0,1,.12-12Z" transform="translate(-9.44)"/><path class="cls-1" d="M1489.52,405H1286.26l29.07-111.6a33.07,33.07,0,0,1,6.16-12,46.57,46.57,0,0,1,10.72-9.8A54.49,54.49,0,0,1,1346,265a50.31,50.31,0,0,1,15.4-2.4h165.32l-14.29,54.6q-10.35,7-20.08,13.4T1475,342.2q-8.87,6-16.51,11.2h-66q12.07-8.2,24.39-16.4t22.91-15.3q10.59-7.1,18.6-12.4t11.46-7.7a0.36,0.36,0,0,1,.12-0.3,0.68,0.68,0,0,0,.12-0.5v-0.4H1360.17q-1,3.6-3,11.4t-4.56,17.4q-2.59,9.6-5.17,19.6t-4.8,18.2h156.69Z" transform="translate(-9.44)"/><path class="cls-1" d="M1593.24,300.6l90.91,48.4a29.38,29.38,0,0,1,11.7,10.5q3.82,6.3,1.6,14.7a33.09,33.09,0,0,1-6.16,12,46.48,46.48,0,0,1-10.72,9.8,54.07,54.07,0,0,1-13.92,6.6,51.49,51.49,0,0,1-15.52,2.4H1502.82l10.1-37.8h115.8q-9.37-5-22.42-11.8-11.09-5.8-27.47-14.7t-38.56-20.5a22.32,22.32,0,0,1-11-11.2,22.9,22.9,0,0,1-.86-15.4,33.09,33.09,0,0,1,6.16-12,46.59,46.59,0,0,1,10.72-9.8,57.18,57.18,0,0,1,13.8-6.7,48.49,48.49,0,0,1,15.4-2.5h148.32l-9.85,38H1593.24Z" transform="translate(-9.44)"/></svg>